<svg xmlns="http://www.w3.org/2000/svg" width="65" height="77" fill="none"><path fill="#83B3D3" d="M61.6 22.5H36.8c13.8-6.9 14.9-11.3 14.4-13.7-1.2-4-5.7-7-10-5.4-5.6 2.1-7.1 10.4-8.6 16.4-2-6-3.8-13.8-8.2-17.7a7.3 7.3 0 0 0-5.8-2c-4 .4-9.8 5.4-7.5 11 2.3 5.4 9.7 8.8 14.6 11.5H3.4a2.9 2.9 0 0 0-2.9 3v11.2c0 1.6 1.3 3 2.9 3h.3V76h57.8V39.6h.1c1.6 0 2.9-1.3 2.9-2.9V25.4c0-1.6-1.3-2.9-2.9-2.9ZM42.9 6c2.1-.3 5 1.3 5.3 3.2.4 2.8-3.4 5.3-5.1 6.4-2.5 1.7-4.9 2.6-7.3 4.1.9-3.7 2.5-13 7.1-13.7ZM20 16c-2.2-1.5-6.5-4.4-6.4-7.8.1-3.6 5.7-6.6 8.8-3.9 3.9 3.4 5.7 11.1 7.1 16.6-3.2-1.5-6.3-2.8-9.5-4.9Zm6 57.2H6.6V39.6H26v33.5Zm0-36.6H3.5v-11H26v11Zm10.2 0v36.6H29V25.6h7.2v11Zm22.3 36.6H39.1V39.6h19.4v33.5Zm2.9-36.6H39.1v-11h22.3v11Z"/></svg>