<svg width="191" height="36" viewBox="0 0 191 36" fill="none" xmlns="http://www.w3.org/2000/svg">
<rect width="191" height="36" rx="4" fill="#82B3D3"/>
<path d="M57.3376 14.752H53.4176V24H51.2256V12.8H59.5296V24H57.3376V14.752ZM61.4444 12.912C61.8924 12.8267 62.383 12.7627 62.9164 12.72C63.4604 12.6667 63.999 12.64 64.5324 12.64C65.087 12.64 65.6417 12.688 66.1964 12.784C66.7617 12.8693 67.2684 13.0507 67.7164 13.328C68.1644 13.5947 68.527 13.9733 68.8044 14.464C69.0924 14.944 69.2364 15.5733 69.2364 16.352C69.2364 17.056 69.1137 17.6533 68.8684 18.144C68.623 18.624 68.2977 19.0187 67.8924 19.328C67.487 19.6373 67.023 19.8613 66.5004 20C65.9884 20.1387 65.455 20.208 64.9004 20.208C64.847 20.208 64.7617 20.208 64.6444 20.208C64.527 20.208 64.4044 20.208 64.2764 20.208C64.1484 20.1973 64.0204 20.1867 63.8924 20.176C63.775 20.1653 63.6897 20.1547 63.6364 20.144V24H61.4444V12.912ZM64.7084 14.528C64.495 14.528 64.2924 14.5387 64.1004 14.56C63.9084 14.5707 63.7537 14.5867 63.6364 14.608V18.24C63.679 18.2507 63.743 18.2613 63.8284 18.272C63.9137 18.2827 64.0044 18.2933 64.1004 18.304C64.1964 18.304 64.287 18.304 64.3724 18.304C64.4684 18.304 64.5377 18.304 64.5804 18.304C64.8684 18.304 65.151 18.2773 65.4284 18.224C65.7164 18.1707 65.9724 18.0747 66.1964 17.936C66.4204 17.7867 66.5964 17.584 66.7244 17.328C66.863 17.072 66.9324 16.736 66.9324 16.32C66.9324 15.968 66.8684 15.68 66.7404 15.456C66.6124 15.2213 66.4417 15.0347 66.2284 14.896C66.0257 14.7573 65.791 14.6613 65.5244 14.608C65.2577 14.5547 64.9857 14.528 64.7084 14.528ZM77.1286 17.792L77.2566 16.336H77.1766L76.4246 17.84L72.2486 24H70.6006V12.8H72.7926V18.896L72.6326 20.4H72.7286L73.5126 18.848L77.6886 12.8H79.3206V24H77.1286V17.792ZM89.9449 18.192L90.1849 15.968H90.0889L89.4009 17.76L87.0169 21.936H86.3129L83.8009 17.744L83.0969 15.968H83.0169L83.3369 18.176V24H81.2569V12.8H83.2569L86.2489 17.92L86.7769 19.2H86.8409L87.3209 17.888L90.1529 12.8H92.1369V24H89.9449V18.192ZM94.0538 12.8H100.694V14.752H96.2458V17.36H100.294V19.312H96.2458V22.048H100.774V24H94.0538V12.8ZM108.701 19.312H104.605V24H102.413V12.8H104.605V17.36H108.701V12.8H110.893V24H108.701V19.312ZM119.363 17.792L119.491 16.336H119.411L118.659 17.84L114.483 24H112.835V12.8H115.027V18.896L114.867 20.4H114.963L115.747 18.848L119.923 12.8H121.555V24H119.363V17.792ZM131.443 14.752H128.179V24H125.987V14.752H122.707V12.8H131.443V14.752ZM132.585 12.8H134.777V16.816C134.83 16.8053 134.916 16.7947 135.033 16.784C135.161 16.7627 135.294 16.7467 135.433 16.736C135.582 16.7253 135.732 16.7147 135.881 16.704C136.03 16.6933 136.169 16.688 136.297 16.688C136.82 16.688 137.326 16.7413 137.817 16.848C138.308 16.9547 138.74 17.1467 139.113 17.424C139.497 17.6907 139.801 18.0587 140.025 18.528C140.249 18.9867 140.361 19.5733 140.361 20.288C140.361 21.568 139.961 22.5333 139.161 23.184C138.372 23.8347 137.236 24.16 135.753 24.16C135.604 24.16 135.401 24.1547 135.145 24.144C134.9 24.144 134.628 24.1333 134.329 24.112C134.03 24.0907 133.726 24.064 133.417 24.032C133.118 24 132.841 23.952 132.585 23.888V12.8ZM135.865 22.208C136.164 22.208 136.446 22.1813 136.713 22.128C136.98 22.064 137.214 21.9627 137.417 21.824C137.62 21.6747 137.774 21.4827 137.881 21.248C137.998 21.0133 138.057 20.7253 138.057 20.384C138.057 20.0213 137.993 19.728 137.865 19.504C137.748 19.2693 137.588 19.088 137.385 18.96C137.193 18.832 136.964 18.7467 136.697 18.704C136.43 18.6613 136.153 18.64 135.865 18.64C135.79 18.64 135.7 18.6453 135.593 18.656C135.486 18.6667 135.38 18.6773 135.273 18.688C135.166 18.6987 135.065 18.7147 134.969 18.736C134.884 18.7467 134.82 18.7573 134.777 18.768V22.112C134.894 22.144 135.049 22.1707 135.241 22.192C135.444 22.2027 135.652 22.208 135.865 22.208Z" fill="white"/>
</svg>
