<svg width="232" height="53" viewBox="0 0 232 53" fill="none" xmlns="http://www.w3.org/2000/svg">
<path d="M0 0.856445H228C230.209 0.856445 232 2.64731 232 4.85645V48.8564C232 51.0656 230.209 52.8564 228 52.8564H0V0.856445Z" fill="#82B3D3"/>
<path d="M58.8732 22.2964H53.9732V33.8564H51.2332V19.8564H61.6132V33.8564H58.8732V22.2964ZM63.5666 26.8564C63.5666 24.5231 64.08 22.7298 65.1066 21.4764C66.1333 20.2098 67.6 19.5764 69.5066 19.5764C70.5066 19.5764 71.38 19.7498 72.1266 20.0964C72.8733 20.4431 73.4933 20.9364 73.9866 21.5764C74.48 22.2164 74.8466 22.9831 75.0866 23.8764C75.3266 24.7698 75.4466 25.7631 75.4466 26.8564C75.4466 29.1898 74.9266 30.9898 73.8866 32.2564C72.86 33.5098 71.4 34.1364 69.5066 34.1364C68.4933 34.1364 67.6133 33.9631 66.8666 33.6164C66.12 33.2698 65.5 32.7764 65.0066 32.1364C64.5266 31.4964 64.1666 30.7298 63.9266 29.8364C63.6866 28.9431 63.5666 27.9498 63.5666 26.8564ZM66.4466 26.8564C66.4466 27.5631 66.5066 28.2164 66.6266 28.8164C66.7466 29.4031 66.9266 29.9098 67.1666 30.3364C67.42 30.7631 67.74 31.0964 68.1266 31.3364C68.5133 31.5764 68.9733 31.6964 69.5066 31.6964C70.48 31.6964 71.2333 31.3164 71.7666 30.5564C72.3 29.7964 72.5666 28.5631 72.5666 26.8564C72.5666 26.1764 72.5066 25.5431 72.3866 24.9564C72.28 24.3698 72.1066 23.8564 71.8666 23.4164C71.6266 22.9764 71.3133 22.6364 70.9266 22.3964C70.54 22.1431 70.0666 22.0164 69.5066 22.0164C68.5333 22.0164 67.78 22.4098 67.2466 23.1964C66.7133 23.9698 66.4466 25.1898 66.4466 26.8564ZM89.314 36.3564H87.374L87.074 33.8564H78.074L77.774 36.3564H75.834V31.4164H77.314C77.4073 31.2698 77.5607 30.9431 77.774 30.4364C77.9873 29.9298 78.2007 29.2164 78.414 28.2964C78.6273 27.3631 78.8073 26.2031 78.954 24.8164C79.1007 23.4164 79.1673 21.7631 79.154 19.8564H87.534V31.4164H89.314V36.3564ZM84.794 31.4164V22.2964H81.694C81.614 24.6698 81.4207 26.6164 81.114 28.1364C80.8207 29.6431 80.5207 30.7364 80.214 31.4164H84.794ZM98.5021 22.2964H93.6021V33.8564H90.8621V19.8564H101.242V33.8564H98.5021V22.2964ZM111.796 26.0964L111.956 24.2764H111.856L110.916 26.1564L105.696 33.8564H103.636V19.8564H106.376V27.4764L106.176 29.3564H106.296L107.276 27.4164L112.496 19.8564H114.536V33.8564H111.796V26.0964ZM126.436 33.2764C126.009 33.5831 125.463 33.8031 124.796 33.9364C124.143 34.0698 123.469 34.1364 122.776 34.1364C121.936 34.1364 121.136 34.0098 120.376 33.7564C119.629 33.4898 118.969 33.0698 118.396 32.4964C117.823 31.9098 117.363 31.1564 117.016 30.2364C116.683 29.3031 116.516 28.1764 116.516 26.8564C116.516 25.4831 116.703 24.3364 117.076 23.4164C117.463 22.4831 117.956 21.7364 118.556 21.1764C119.169 20.6031 119.849 20.1964 120.596 19.9564C121.343 19.7031 122.089 19.5764 122.836 19.5764C123.636 19.5764 124.309 19.6298 124.856 19.7364C125.416 19.8431 125.876 19.9698 126.236 20.1164L125.696 22.4364C125.389 22.2898 125.023 22.1831 124.596 22.1164C124.183 22.0498 123.676 22.0164 123.076 22.0164C121.969 22.0164 121.076 22.4098 120.396 23.1964C119.729 23.9831 119.396 25.2031 119.396 26.8564C119.396 27.5764 119.476 28.2364 119.636 28.8364C119.796 29.4231 120.036 29.9298 120.356 30.3564C120.689 30.7698 121.096 31.0964 121.576 31.3364C122.069 31.5631 122.636 31.6764 123.276 31.6764C123.876 31.6764 124.383 31.6164 124.796 31.4964C125.209 31.3764 125.569 31.2231 125.876 31.0364L126.436 33.2764ZM134.149 30.7564H129.849L128.789 33.8564H126.049L131.089 19.7564H133.109L138.149 33.8564H135.269L134.149 30.7564ZM130.549 28.5564H133.549L132.509 25.4364L132.089 23.2364H131.989L131.569 25.4564L130.549 28.5564ZM147.736 22.2964H143.656V33.8564H140.916V22.2964H136.816V19.8564H147.736V22.2964ZM149.163 19.8564H151.903V24.8764C151.97 24.8631 152.076 24.8498 152.223 24.8364C152.383 24.8098 152.55 24.7898 152.723 24.7764C152.91 24.7631 153.096 24.7498 153.283 24.7364C153.47 24.7231 153.643 24.7164 153.803 24.7164C154.456 24.7164 155.09 24.7831 155.703 24.9164C156.316 25.0498 156.856 25.2898 157.323 25.6364C157.803 25.9698 158.183 26.4298 158.463 27.0164C158.743 27.5898 158.883 28.3231 158.883 29.2164C158.883 30.8164 158.383 32.0231 157.383 32.8364C156.396 33.6498 154.976 34.0564 153.123 34.0564C152.936 34.0564 152.683 34.0498 152.363 34.0364C152.056 34.0364 151.716 34.0231 151.343 33.9964C150.97 33.9698 150.59 33.9364 150.203 33.8964C149.83 33.8564 149.483 33.7964 149.163 33.7164V19.8564ZM153.263 31.6164C153.636 31.6164 153.99 31.5831 154.323 31.5164C154.656 31.4364 154.95 31.3098 155.203 31.1364C155.456 30.9498 155.65 30.7098 155.783 30.4164C155.93 30.1231 156.003 29.7631 156.003 29.3364C156.003 28.8831 155.923 28.5164 155.763 28.2364C155.616 27.9431 155.416 27.7164 155.163 27.5564C154.923 27.3964 154.636 27.2898 154.303 27.2364C153.97 27.1831 153.623 27.1564 153.263 27.1564C153.17 27.1564 153.056 27.1631 152.923 27.1764C152.79 27.1898 152.656 27.2031 152.523 27.2164C152.39 27.2298 152.263 27.2498 152.143 27.2764C152.036 27.2898 151.956 27.3031 151.903 27.3164V31.4964C152.05 31.5364 152.243 31.5698 152.483 31.5964C152.736 31.6098 152.996 31.6164 153.263 31.6164ZM169.873 33.2764C169.447 33.5831 168.9 33.8031 168.233 33.9364C167.58 34.0698 166.907 34.1364 166.213 34.1364C165.373 34.1364 164.573 34.0098 163.813 33.7564C163.067 33.4898 162.407 33.0698 161.833 32.4964C161.26 31.9098 160.8 31.1564 160.453 30.2364C160.12 29.3031 159.953 28.1764 159.953 26.8564C159.953 25.4831 160.14 24.3364 160.513 23.4164C160.9 22.4831 161.393 21.7364 161.993 21.1764C162.607 20.6031 163.287 20.1964 164.033 19.9564C164.78 19.7031 165.527 19.5764 166.273 19.5764C167.073 19.5764 167.747 19.6298 168.293 19.7364C168.853 19.8431 169.313 19.9698 169.673 20.1164L169.133 22.4364C168.827 22.2898 168.46 22.1831 168.033 22.1164C167.62 22.0498 167.113 22.0164 166.513 22.0164C165.407 22.0164 164.513 22.4098 163.833 23.1964C163.167 23.9831 162.833 25.2031 162.833 26.8564C162.833 27.5764 162.913 28.2364 163.073 28.8364C163.233 29.4231 163.473 29.9298 163.793 30.3564C164.127 30.7698 164.533 31.0964 165.013 31.3364C165.507 31.5631 166.073 31.6764 166.713 31.6764C167.313 31.6764 167.82 31.6164 168.233 31.4964C168.647 31.3764 169.007 31.2231 169.313 31.0364L169.873 33.2764ZM180.745 33.8564H178.005V28.3164L176.565 28.6964L173.645 33.8564H170.465L173.345 29.1964L174.545 28.3364C174.119 28.2298 173.719 28.0698 173.345 27.8564C172.972 27.6298 172.645 27.3431 172.365 26.9964C172.085 26.6498 171.865 26.2431 171.705 25.7764C171.545 25.2964 171.465 24.7564 171.465 24.1564C171.465 23.3164 171.612 22.6098 171.905 22.0364C172.199 21.4631 172.605 21.0031 173.125 20.6564C173.645 20.2964 174.265 20.0431 174.985 19.8964C175.705 19.7364 176.485 19.6564 177.325 19.6564C177.552 19.6564 177.812 19.6631 178.105 19.6764C178.399 19.6898 178.699 19.7098 179.005 19.7364C179.325 19.7631 179.632 19.7964 179.925 19.8364C180.232 19.8764 180.505 19.9298 180.745 19.9964V33.8564ZM176.985 22.0964C176.625 22.0964 176.285 22.1298 175.965 22.1964C175.645 22.2631 175.365 22.3764 175.125 22.5364C174.885 22.6964 174.692 22.9164 174.545 23.1964C174.412 23.4764 174.345 23.8364 174.345 24.2764C174.345 24.6898 174.412 25.0431 174.545 25.3364C174.679 25.6164 174.865 25.8498 175.105 26.0364C175.345 26.2098 175.625 26.3364 175.945 26.4164C176.265 26.4964 176.612 26.5364 176.985 26.5364H178.005V22.1964C177.859 22.1698 177.705 22.1498 177.545 22.1364C177.399 22.1098 177.212 22.0964 176.985 22.0964Z" fill="white"/>
</svg>
