<svg width="140" height="36" viewBox="0 0 140 36" fill="none" xmlns="http://www.w3.org/2000/svg">
<rect width="140" height="36" rx="4" fill="#7DB54F"/>
<path d="M26.6601 15.408C26.6601 15.6853 26.6227 15.9627 26.5481 16.24C26.4841 16.5173 26.3721 16.7733 26.2121 17.008C26.0521 17.232 25.8441 17.4347 25.5881 17.616C25.3321 17.7867 25.0227 17.9147 24.6601 18V18.096C24.9801 18.1493 25.2841 18.24 25.5721 18.368C25.8601 18.496 26.1107 18.672 26.3241 18.896C26.5374 19.12 26.7027 19.392 26.8201 19.712C26.9481 20.032 27.0121 20.4107 27.0121 20.848C27.0121 21.424 26.8894 21.9253 26.6441 22.352C26.3987 22.768 26.0681 23.1093 25.6521 23.376C25.2467 23.6427 24.7827 23.84 24.2601 23.968C23.7374 24.096 23.1987 24.16 22.6441 24.16C22.4627 24.16 22.2281 24.16 21.9401 24.16C21.6627 24.16 21.3587 24.1493 21.0281 24.128C20.7081 24.1173 20.3774 24.096 20.0361 24.064C19.7054 24.032 19.4014 23.984 19.1241 23.92V12.88C19.3267 12.848 19.5561 12.816 19.8121 12.784C20.0787 12.752 20.3614 12.7253 20.6601 12.704C20.9587 12.6827 21.2627 12.6667 21.5721 12.656C21.8921 12.6453 22.2067 12.64 22.5161 12.64C23.0387 12.64 23.5454 12.6827 24.0361 12.768C24.5374 12.8427 24.9801 12.9813 25.3641 13.184C25.7587 13.3867 26.0734 13.6693 26.3081 14.032C26.5427 14.3947 26.6601 14.8533 26.6601 15.408ZM22.6601 22.352C22.9267 22.352 23.1827 22.32 23.4281 22.256C23.6841 22.192 23.9081 22.096 24.1001 21.968C24.2921 21.8293 24.4467 21.6587 24.5641 21.456C24.6814 21.2533 24.7401 21.0133 24.7401 20.736C24.7401 20.384 24.6707 20.1067 24.5321 19.904C24.3934 19.7013 24.2121 19.5467 23.9881 19.44C23.7641 19.3227 23.5134 19.248 23.2361 19.216C22.9587 19.184 22.6814 19.168 22.4041 19.168H21.2361V22.256C21.2894 22.2773 21.3747 22.2933 21.4921 22.304C21.6094 22.3147 21.7321 22.3253 21.8601 22.336C21.9987 22.336 22.1374 22.3413 22.2761 22.352C22.4254 22.352 22.5534 22.352 22.6601 22.352ZM21.9401 17.504C22.0894 17.504 22.2601 17.4987 22.4521 17.488C22.6547 17.4773 22.8201 17.4613 22.9481 17.44C23.3534 17.312 23.7001 17.12 23.9881 16.864C24.2867 16.608 24.4361 16.272 24.4361 15.856C24.4361 15.5787 24.3827 15.3493 24.2761 15.168C24.1694 14.9867 24.0254 14.8427 23.8441 14.736C23.6734 14.6293 23.4761 14.5547 23.2521 14.512C23.0281 14.4693 22.7934 14.448 22.5481 14.448C22.2707 14.448 22.0147 14.4533 21.7801 14.464C21.5454 14.4747 21.3641 14.4907 21.2361 14.512V17.504H21.9401ZM39.1521 17.792L39.2801 16.336H39.2001L38.4481 17.84L34.2721 24H32.6241V12.8H34.8161V18.896L34.6561 20.4H34.7521L35.5361 18.848L39.7121 12.8H41.3441V24H39.1521V17.792ZM44.2403 19.04V17.328H44.6243C44.7203 17.328 44.8376 17.328 44.9763 17.328C45.115 17.328 45.2536 17.328 45.3923 17.328C45.5416 17.3173 45.6856 17.3067 45.8243 17.296C45.963 17.2747 46.075 17.2533 46.1603 17.232C46.5336 17.1467 46.8536 16.9973 47.1203 16.784C47.387 16.56 47.5203 16.2613 47.5203 15.888C47.5203 15.376 47.355 15.0293 47.0243 14.848C46.7043 14.656 46.2776 14.56 45.7443 14.56C45.2643 14.56 44.8163 14.624 44.4003 14.752C43.9843 14.88 43.6696 15.0027 43.4563 15.12L42.8963 13.264C43.0136 13.2 43.179 13.1307 43.3923 13.056C43.6163 12.9813 43.867 12.912 44.1443 12.848C44.4323 12.7733 44.7416 12.7147 45.0723 12.672C45.403 12.6293 45.739 12.608 46.0803 12.608C46.5496 12.608 47.0083 12.6507 47.4563 12.736C47.9043 12.8213 48.3043 12.9707 48.6563 13.184C49.0083 13.3973 49.291 13.6853 49.5043 14.048C49.7176 14.4 49.8243 14.8533 49.8243 15.408C49.8243 15.9627 49.675 16.4747 49.3763 16.944C49.0883 17.4133 48.619 17.7547 47.9683 17.968V18.048C48.6616 18.1867 49.2003 18.4853 49.5843 18.944C49.979 19.4027 50.1763 20.016 50.1763 20.784C50.1763 21.392 50.0536 21.9147 49.8083 22.352C49.563 22.7787 49.2376 23.1307 48.8323 23.408C48.4376 23.6853 47.979 23.888 47.4563 24.016C46.9336 24.1547 46.4003 24.224 45.8563 24.224C45.1523 24.224 44.5123 24.1653 43.9363 24.048C43.3603 23.9307 42.9176 23.792 42.6083 23.632L43.1683 21.728C43.4136 21.8453 43.7656 21.968 44.2243 22.096C44.683 22.2133 45.227 22.272 45.8563 22.272C46.091 22.272 46.3256 22.2453 46.5603 22.192C46.8056 22.128 47.0243 22.032 47.2163 21.904C47.4083 21.7653 47.563 21.5893 47.6803 21.376C47.7976 21.1627 47.8563 20.9067 47.8563 20.608C47.8563 20.1067 47.6696 19.728 47.2963 19.472C46.923 19.216 46.2563 19.0773 45.2963 19.056C45.1683 19.0453 45.0723 19.04 45.0083 19.04C44.9443 19.04 44.8323 19.04 44.6723 19.04H44.2403ZM51.7022 12.8H58.5982V14.752H53.8942V17.088C54.0755 17.056 54.2942 17.024 54.5502 16.992C54.8169 16.96 55.0782 16.944 55.3342 16.944C55.9315 16.944 56.4809 17.0027 56.9822 17.12C57.4835 17.2373 57.9102 17.4347 58.2622 17.712C58.6249 17.9787 58.9075 18.336 59.1102 18.784C59.3129 19.2213 59.4142 19.76 59.4142 20.4C59.4142 21.0293 59.3075 21.5787 59.0942 22.048C58.8915 22.5173 58.5929 22.9067 58.1982 23.216C57.8142 23.5253 57.3449 23.76 56.7902 23.92C56.2462 24.08 55.6329 24.16 54.9502 24.16C54.7689 24.16 54.5395 24.1547 54.2622 24.144C53.9955 24.1333 53.7075 24.1173 53.3982 24.096C53.0995 24.0747 52.8009 24.048 52.5022 24.016C52.2035 23.984 51.9369 23.9413 51.7022 23.888V12.8ZM55.1102 22.352C55.3875 22.352 55.6435 22.32 55.8782 22.256C56.1235 22.1813 56.3369 22.0747 56.5182 21.936C56.6995 21.7867 56.8435 21.6 56.9502 21.376C57.0569 21.152 57.1102 20.88 57.1102 20.56C57.1102 20.176 57.0515 19.8667 56.9342 19.632C56.8169 19.3973 56.6569 19.216 56.4542 19.088C56.2515 18.9493 56.0169 18.8587 55.7502 18.816C55.4942 18.7733 55.2169 18.752 54.9182 18.752C54.7689 18.752 54.5822 18.768 54.3582 18.8C54.1342 18.8213 53.9795 18.8427 53.8942 18.864V22.272C54.0115 22.304 54.1875 22.3253 54.4222 22.336C54.6675 22.3467 54.8969 22.352 55.1102 22.352ZM60.8272 12.912C61.2752 12.8267 61.7659 12.7627 62.2992 12.72C62.8432 12.6667 63.3819 12.64 63.9152 12.64C64.4699 12.64 65.0245 12.688 65.5792 12.784C66.1445 12.8693 66.6512 13.0507 67.0992 13.328C67.5472 13.5947 67.9099 13.9733 68.1872 14.464C68.4752 14.944 68.6192 15.5733 68.6192 16.352C68.6192 17.056 68.4965 17.6533 68.2512 18.144C68.0059 18.624 67.6805 19.0187 67.2752 19.328C66.8699 19.6373 66.4059 19.8613 65.8832 20C65.3712 20.1387 64.8379 20.208 64.2832 20.208C64.2299 20.208 64.1445 20.208 64.0272 20.208C63.9099 20.208 63.7872 20.208 63.6592 20.208C63.5312 20.1973 63.4032 20.1867 63.2752 20.176C63.1579 20.1653 63.0725 20.1547 63.0192 20.144V24H60.8272V12.912ZM64.0912 14.528C63.8779 14.528 63.6752 14.5387 63.4832 14.56C63.2912 14.5707 63.1365 14.5867 63.0192 14.608V18.24C63.0619 18.2507 63.1259 18.2613 63.2112 18.272C63.2965 18.2827 63.3872 18.2933 63.4832 18.304C63.5792 18.304 63.6699 18.304 63.7552 18.304C63.8512 18.304 63.9205 18.304 63.9632 18.304C64.2512 18.304 64.5339 18.2773 64.8112 18.224C65.0992 18.1707 65.3552 18.0747 65.5792 17.936C65.8032 17.7867 65.9792 17.584 66.1072 17.328C66.2459 17.072 66.3152 16.736 66.3152 16.32C66.3152 15.968 66.2512 15.68 66.1232 15.456C65.9952 15.2213 65.8245 15.0347 65.6112 14.896C65.4085 14.7573 65.1739 14.6613 64.9072 14.608C64.6405 14.5547 64.3685 14.528 64.0912 14.528ZM74.2691 21.52H70.8291L69.9811 24H67.7891L71.8211 12.72H73.4371L77.4691 24H75.1651L74.2691 21.52ZM71.3891 19.76H73.7891L72.9571 17.264L72.6211 15.504H72.5411L72.2051 17.28L71.3891 19.76ZM84.7246 19.312H80.6286V24H78.4366V12.8H80.6286V17.36H84.7246V12.8H86.9166V24H84.7246V19.312ZM95.1464 19.312H91.0504V24H88.8584V12.8H91.0504V17.36H95.1464V12.8H97.3384V24H95.1464V19.312ZM98.9283 18.4C98.9283 16.5333 99.339 15.0987 100.16 14.096C100.982 13.0827 102.155 12.576 103.68 12.576C104.48 12.576 105.179 12.7147 105.776 12.992C106.374 13.2693 106.87 13.664 107.264 14.176C107.659 14.688 107.952 15.3013 108.144 16.016C108.336 16.7307 108.432 17.5253 108.432 18.4C108.432 20.2667 108.016 21.7067 107.184 22.72C106.363 23.7227 105.195 24.224 103.68 24.224C102.87 24.224 102.166 24.0853 101.568 23.808C100.971 23.5307 100.475 23.136 100.08 22.624C99.6963 22.112 99.4083 21.4987 99.2163 20.784C99.0243 20.0693 98.9283 19.2747 98.9283 18.4ZM101.232 18.4C101.232 18.9653 101.28 19.488 101.376 19.968C101.472 20.4373 101.616 20.8427 101.808 21.184C102.011 21.5253 102.267 21.792 102.576 21.984C102.886 22.176 103.254 22.272 103.68 22.272C104.459 22.272 105.062 21.968 105.488 21.36C105.915 20.752 106.128 19.7653 106.128 18.4C106.128 17.856 106.08 17.3493 105.984 16.88C105.899 16.4107 105.76 16 105.568 15.648C105.376 15.296 105.126 15.024 104.816 14.832C104.507 14.6293 104.128 14.528 103.68 14.528C102.902 14.528 102.299 14.8427 101.872 15.472C101.446 16.0907 101.232 17.0667 101.232 18.4ZM118.687 18.192L118.927 15.968H118.831L118.143 17.76L115.759 21.936H115.055L112.543 17.744L111.839 15.968H111.759L112.079 18.176V24H109.999V12.8H111.999L114.991 17.92L115.519 19.2H115.583L116.063 17.888L118.895 12.8H120.879V24H118.687V18.192Z" fill="white"/>
</svg>
