<svg width="19" height="19" viewBox="0 0 19 19" fill="none" xmlns="http://www.w3.org/2000/svg">
<path d="M18.5 17.0801L14.8 13.4005C15.8 12.1077 16.5 10.4171 16.5 8.52758C16.5 4.15189 12.9 0.571777 8.5 0.571777C4.1 0.571777 0.5 4.25134 0.5 8.62703C0.5 13.0027 4.1 16.5828 8.5 16.5828C10.3 16.5828 12 15.9861 13.4 14.8922L17.1 18.5718L18.5 17.0801ZM8.5 14.5939C5.2 14.5939 2.5 11.9088 2.5 8.62703C2.5 5.34526 5.2 2.66018 8.5 2.66018C11.8 2.66018 14.5 5.34526 14.5 8.62703C14.5 11.9088 11.8 14.5939 8.5 14.5939Z" fill="black"/>
</svg>
